<svg xmlns="http://www.w3.org/2000/svg" viewBox="0 0 16 14" shape-rendering="crispEdges">
  <rect width="16" height="14" fill="#fafafa"/>
  <g fill="#111">
    <rect x="4" y="0" width="8" height="1"/>
    <rect x="3" y="1" width="1" height="1"/><rect x="12" y="1" width="1" height="1"/>
    <rect x="2" y="2" width="1" height="1"/><rect x="13" y="2" width="1" height="1"/>
    <rect x="1" y="3" width="1" height="1"/><rect x="14" y="3" width="1" height="1"/>
    <rect x="1" y="4" width="1" height="1"/><rect x="14" y="4" width="1" height="1"/>
    <rect x="4" y="4" width="2" height="2"/><rect x="10" y="4" width="2" height="2"/>
    <rect x="1" y="5" width="1" height="1"/><rect x="14" y="5" width="1" height="1"/>
    <rect x="1" y="6" width="1" height="4"/><rect x="14" y="6" width="1" height="4"/>
    <rect x="1" y="10" width="1" height="3"/><rect x="4" y="10" width="1" height="3"/>
    <rect x="6" y="10" width="1" height="3"/><rect x="9" y="10" width="1" height="3"/>
    <rect x="11" y="10" width="1" height="3"/><rect x="14" y="10" width="1" height="3"/>
    <rect x="2" y="13" width="2" height="1"/><rect x="7" y="13" width="2" height="1"/><rect x="12" y="13" width="2" height="1"/>
  </g>
  <g fill="#880f1e">
    <rect x="4" y="1" width="8" height="1"/>
    <rect x="3" y="2" width="10" height="1"/>
    <rect x="2" y="3" width="12" height="1"/>
    <rect x="2" y="4" width="2" height="2"/><rect x="6" y="4" width="4" height="2"/><rect x="12" y="4" width="2" height="2"/>
    <rect x="2" y="6" width="12" height="4"/>
    <rect x="2" y="10" width="2" height="3"/><rect x="7" y="10" width="2" height="3"/><rect x="12" y="10" width="2" height="3"/>
  </g>
</svg>
